<svg version="1.0" xmlns="http://www.w3.org/2000/svg"
 width="300.000000pt" height="355.000000pt" viewBox="0 0 300.000000 355.000000"
 preserveAspectRatio="xMidYMid meet">
<g transform="translate(0.000000,355.000000) scale(0.1,-0.1)">
<path fill="red" id="a" d="M878 3403 l-77 -78 105 -107 104 -108 567 0 566 0 85 78 c47 42 107 97 134 122 l50 45 -63 63 -62 62 -666 0 -666 0 -77 -77z m1419 24 c42 -33 61 -60 55 -77 -6 -16 -57 -70 -66 -70 -4 0 -74 -63 -129 -117 -20 -20 2 -19 -767 -15 l-375 2 -37 35 c-21 18 -38 39 -38 44 0 6 -7 11 -15 11 -9 0 -12 6 -8 17 4 11 3 14 -6 9 -16 -10 -50 32 -51 62 0 13 6 29 13 35 7 7 31 29 54 49 l42 37 650 0 649 0 29 -22z"/>
<path fill="red" id="b" d="M2400 3177 c-36 -34 -93 -88 -127 -119 -60 -55 -63 -60 -73 -122 -6 -36 -12 -71 -15 -78 -3 -7 -12 -58 -21 -113 -9 -55 -22 -134 -29 -175 -18 -101 -53 -297 -70 -395 -7 -44 -16 -91 -20 -105 -5 -21 0 -28 32 -46 82 -46 243 -145 248 -154 4 -6 14 -10 23 -10 14 0 20 19 34 108 9 59 23 141 31 182 9 41 25 127 37 190 22 121 37 199 64 340 17 86 50 264 66 353 5 26 11 56 15 65 3 13 -13 37 -56 80 -34 34 -64 62 -68 62 -3 0 -35 -28 -71 -63z m156 -102 c-23 -171 -30 -215 -38 -215 -4 0 -8 -14 -8 -31 0 -18 -11 -86 -25 -153 -13 -67 -40 -206 -60 -311 -19 -104 -44 -234 -55 -288 -11 -54 -20 -111 -20 -126 0 -33 -32 -48 -51 -25 -6 8 -15 14 -20 14 -5 0 -40 20 -79 45 -39 25 -75 45 -80 45 -5 0 -17 11 -26 25 -15 23 -15 32 0 112 9 49 18 106 21 128 6 43 9 57 54 300 16 88 32 176 35 195 7 46 14 83 28 148 11 53 12 54 135 171 8 8 36 32 61 52 l46 38 43 -42 c41 -39 44 -45 39 -82z"/>
<path fill="red" id="c" d="M2295 1728 c-27 -21 -64 -49 -82 -61 -17 -12 -84 -60 -147 -106 -104 -75 -116 -87 -122 -120 -20 -127 -47 -275 -59 -331 -8 -36 -17 -87 -20 -115 -4 -27 -10 -59 -15 -70 -4 -11 -15 -65 -23 -120 -9 -55 -23 -129 -30 -165 l-15 -65 86 -100 c124 -145 111 -133 128 -110 8 11 39 45 69 75 30 31 57 69 60 85 4 17 13 64 20 105 8 41 24 125 35 185 12 61 28 144 35 185 20 108 41 219 65 345 12 61 28 144 35 185 7 41 21 109 29 150 23 109 25 107 -49 48z m9 -70 c-3 -46 -29 -200 -74 -433 -22 -110 -44 -227 -51 -260 -6 -33 -13 -69 -15 -80 -2 -11 -11 -58 -19 -105 -46 -252 -61 -290 -136 -352 l-33 -28 -30 34 c-64 70 -76 87 -71 97 4 5 3 9 -2 8 -32 -6 -61 43 -49 83 4 13 11 50 16 83 10 72 81 450 116 625 25 123 47 170 80 170 7 0 14 4 16 8 2 5 32 31 68 58 36 27 66 52 68 55 2 4 12 4 24 1 14 -3 19 -1 14 6 -6 9 57 62 74 62 3 0 5 -15 4 -32z"/>
<path fill="red" id="d" d="M485 472 c-49 -45 -170 -152 -205 -180 l-25 -21 65 -65 64 -66 666 0 665 0 78 77 c74 72 77 77 60 93 -21 20 -60 64 -127 143 l-48 57 -577 0 -576 -1 -40 -37z m1191 -11 c59 -60 130 -145 134 -164 6 -21 -4 -34 -73 -94 l-38 -33 -648 0 -647 0 -41 35 c-56 48 -58 65 -12 109 21 20 40 36 42 36 2 0 35 29 73 65 l69 65 561 0 c541 0 561 -1 580 -19z"/>
<path fill="red" id="e" d="M309 1768 c-3 -8 -50 -273 -60 -333 -6 -38 -13 -77 -17 -85 -3 -8-11 -46 -18 -85 -14 -81 -48 -267 -70 -375 -8 -41 -21 -111 -29 -155 -8 -44 -21 -114 -29 -155 l-15 -75 62 -62 62 -62 65 60 c36 33 91 85 122 115 32 30 62 54 67 54 4 0 13 30 19 68 6 37 18 103 26 147 25 134 43 235 61 345 9 58 21 114 25 125 5 11 11 45 15 75 3 30 10 69 14 85 26 87 25 89 -42 136 -34 23 -104 73 -155 111 -85 63 -100 73 -103 66z m71 -77 c10 -13 132 -101 170 -122 50 -29 53 6 -39 -499 -38 -208 -70 -378 -76 -409 -5 -26 -191 -210 -213 -211 -7 0 -10 -5 -6 -11 4 -8 -1 -9 -17 -4 -28 8 -89 73 -89 95 0 21 27 180 35 210 4 14 11 48 15 75 5 28 15 86 24 130 50 258 59 305 66 355 5 30 18 102 30 160 12 58 24 119 26 135 2 17 7 41 10 55 4 14 8 30 9 35 1 6 3 14 3 18 2 9 43 -1 52 -12z"/>
<path fill="red" id="f" d="M616 3191 c-58 -58 -70 -76 -77 -117 -6 -27 -17 -85 -25 -129 -9 -44 -22 -111 -30 -150 -8 -38 -23 -119 -34 -180 -20 -109 -33 -172 -65 -335 -26 -132 -56 -291 -62 -330 -3 -19 -10 -41 -16 -48 -6 -8 -6 -16 -1 -21 5 -5 64 22 134 61 69 38 161 89 205 112 l80 42 13 74 c7 41 19 112 27 158 18 99 37 207 65 362 46 260 52 297 56 330 4 33 -2 42 -93 138 -54 56 -100 102 -103 102 -3 0 -36 -31 -74 -69z m238 -181 c-2 -22 -6 -52 -9 -67 -7 -40 -23 -133 -29 -168 -4 -29 -88 -504 -102 -575 -11 -61 -32 -97 -68 -114 -20 -9 -38 -21 -41 -26 -3 -5 -12 -7 -20 -3 -8 3 -15 0 -15 -6 0 -6 -7 -11 -15 -11 -8 0 -15 -4 -15 -10 0 -5 -8 -10 -18 -10 -10 0 -22 -4 -28 -9 -22 -21 -122 -69 -132 -62 -7 4 -7 20 -1 51 21 101 89 453 109 565 11 66 25 137 31 158 5 21 12 52 14 70 3 18 18 97 34 177 l30 145 58 53 57 52 82 -85 c79 -81 82 -86 78 -125z"/>
<path fill="red" id="g" d="M725 1978 c-11 -6 -72 -42 -136 -79 -64 -38 -122 -69 -128 -69 -18 0 -13 -30 7 -38 16 -7 65 -38 203 -128 l67 -44 596 0 597 0 127 83 c70 46 135 86 145 90 9 3 17 11 17 16 0 5 -66 48 -146 95 l-147 86 -591 0 c-413 -1 -597 -4 -611 -12z m1199 -29 c21 -6 43 -15 50 -20 20 -17 80 -54 129 -79 44 -23 65 -59 35 -60 -7 -1 -29 -14 -48 -30 -19 -17 -38 -30 -43 -30 -4 0 -17 -9 -29 -20 -12 -11 -28 -20 -35 -20 -7 0 -13 -3 -13 -8 0 -4 -13 -13 -29 -20 -41 -18 -1212 -13 -1219 6 -2 6 -8 12 -14 12 -10 0 -149 88 -158 100 -3 3 -13 9 -22 13 -10 3 -18 11 -18 16 0 14 98 73 110 66 5 -3 10 -2 10 3 0 11 82 63 115 73 34 12 1136 9 1179 -2z"/>
<path fill="red" id="dp" d="M2548 485 c-67 -35 -92 -75 -96 -155 -6 -94 22 -141 105 -185 74 -39 111 -40 175 -2 88 52 117 113 97 208 -16 74 -36 106 -88 135 -58 32 -129 32 -193 -1z m135 -8 c11 10 100 -58 103 -79 1 -5 2 -9 4 -10 2 -3 5 -16 14 -68 6 -27 2 -46 -16 -79 -44 -82 -121 -115 -187 -80 -20 10 -39 19 -44 19 -4 0 -22 13 -39 28 -26 25 -31 38 -35 93 -5 60 -3 67 26 107 17 23 37 42 45 42 8 0 16 4 18 9 2 6 16 12 32 15 16 3 31 7 34 10 2 3 12 1 22 -4 10 -5 20 -7 23 -3z"/>
</g>
</svg>
