<svg version="1.0" xmlns="http://www.w3.org/2000/svg"
 width="300.000000pt" height="355.000000pt" viewBox="0 0 300.000000 355.000000"
 preserveAspectRatio="xMidYMid meet">
<g transform="translate(0.000000,355.000000) scale(0.1,-0.1)">
<path fill="red" id="a" d="M878 3403 801 3325  1010 3110H1577 2143L2228 3188 2412 3355 2349 3418 2287 3480H1621 955L878 3403"/>
<path fill="red" id="b" d="M2400 3177l-127-119c-60-55-63-60-73-122l-15-78-21-113-29-175-70-395-20-105c-5-21 0-28 32-46l248-154c4-6 14-10 23-10 14 0 20 19 34 108l31 182 37 190 64 340 66 353 15 65c3 13-13 37-56 80l-68 62"/>
<path fill="red" id="c" d="M2295 1728l-82-61-147-106c-104-75-116-87-122-120l-59-331-20-115-15-70-23-120-30-165-15-65 86-100c124-145 111-133 128-110l69 75c30 31 57 69 60 85l20 105 35 185 35 185 65 345 35 185 29 150c23 109 25 107-49 48z"/>
<path fill="red" id="d" d="M485 472l-205-180-25-21 65-65 64-66 666 0 665 0 78 77c74 72 77 77 60 93l-127 143-48 57-577 0-576-1-40-37z"/>
<path fill="red" id="e" d="M309 1768l-60-333-17-85-18-85-70-375-29-155-29-155-15-75 62-62 62-62 65 60 122 115 67 54 19 68 26 147 61 345 25 125 15 75 14 85c26 87 25 89-42 136l-155 111-103 66z"/>
<path fill="red" id="f" d="M616 3191c-58-58-70-76-77-117l-25-129-30-150-34-180-65-335-62-330-16-48c-6-8-6-16-1-21l134 61 205 112 80 42 13 74 27 158 65 362 56 330-93 138-103 102-74-69z"/>
<path fill="red" id="g" d="M725 1978l-136-79-128-69c-18 0-13-30 7-38l203-128 67-44 596 0 597 0 127 83 145 90-146 95-147 86-591 0-593 6z"/>
<circle fill="red" r="200" cx="2650" cy="300" />
</g>
</svg>
