<svg version="1.0" xmlns="http://www.w3.org/2000/svg">
<g transform="translate(0,355) scale(0.1,-0.1)">
<path fill="red" id="a" d="M955 3480 2287 3480 2412 3355 2143 3110 1010 3110 801 3325Z"/>
<path fill="red" id="b" d="M2471 3240 2598 3111 2362 1860 2040 2049 2213 3003Z"/>
<path fill="red" id="c" d="M1950 1474 1782 575 1979 342 2125 525 2369 1787Z"/>
<path fill="red" id="d" d="M255 271 384 140 1715 140 1867 289 1678 510 525 509Z"/>
<path fill="red" id="e" d="M309 1768 71 505 195 381 449 610 635 1542 309 1768Z"/>
<path fill="red" id="f" d="M546 3115 306 1881 725 2096 886 3020 690 3260Z"/>
<path fill="red" id="g" d="M725 1978 439 1814 738 1620 1931 1620 2203 1793 1910 1974 726 1980Z"/>
<circle fill="red" r="200" cx="2400" cy="300" />
</g>
</svg>
