<svg version="1.0" xmlns="http://www.w3.org/2000/svg" height="100%">
  <path fill="red" id="a" d="M9.6 1.0 22.9 1.0 24.1 2.3 21.4 4.7 10.1 4.7 8.0 2.6Z"/>
  <path fill="red" id="b" d="M24.7 3.4 26.0 4.7 23.6 17.2 20.4 15.3 22.1 5.8Z"/>
  <path fill="red" id="c" d="M19.5 21.1 17.8 30.1 19.8 32.4 21.3 30.6 23.7 17.9Z"/>
  <path fill="red" id="d" d="M2.6 33.0 3.8 34.3 17.2 34.3 18.7 32.8 16.8 30.5 5.3 30.5Z"/>
  <path fill="red" id="e" d="M3.1 18.1 .7 30.7 2.0 31.9 4.5 29.5 6.4 20.2 3.1 18.1Z"/>
  <path fill="red" id="f" d="M5.5 4.8 3.1 17.1 7.3 14.9 8.9 4.7 7.2 2.6Z"/>
  <path fill="red" id="g" d="M7.3 16.1 4.4 17.7 7.4 19.6 19.3 19.6 22.0 17.9 19.1 16.1Z"/>
  <circle fill="red" id="dp" r="2.0" cx="24.0" cy="32.8"/>
</svg>
