<svg version="1.0" xmlns="http://www.w3.org/2000/svg" height="100%">
  <path fill="red" id="a" d="M96 10 229 10 241 23 214 47 101 47 80 26Z"/>
  <path fill="red" id="b" d="M247 34 260 47 236 172 204 153 221 58Z"/>
  <path fill="red" id="c" d="M195 211 178 301 198 324 213 306 237 179Z"/>
  <path fill="red" id="d" d="M26 330 38 343 172 343 187 328 168 305 53 305Z"/>
  <path fill="red" id="e" d="M31 181 7 307 20 319 45 295 64 202 31 181Z"/>
  <path fill="red" id="f" d="M55 48 31 171 73 149 89 47 72 26Z"/>
  <path fill="red" id="g" d="M73 161 44 177 74 196 193 196 220 179 191 161Z"/>
  <circle fill="red" r="20" cx="240" cy="328"/>
</svg>